Benzinova-C1.ufo
<glyph name="dollar" format="1">
  <advance width="1012"/>
  <unicode hex="0024"/>
  <outline>
    <contour>
      <point x="490" y="1197" type="line"/>
      <point x="490" y="1188"/>
      <point x="497" y="1181"/>
      <point x="506" y="1181" type="curve" smooth="yes"/>
      <point x="515" y="1181"/>
      <point x="522" y="1188"/>
      <point x="522" y="1197" type="curve" smooth="yes"/>
      <point x="522" y="1276" type="line" smooth="yes"/>
      <point x="522" y="1285"/>
      <point x="515" y="1292"/>
      <point x="506" y="1292" type="curve" smooth="yes"/>
      <point x="497" y="1292"/>
      <point x="490" y="1285"/>
      <point x="490" y="1276" type="curve" smooth="yes"/>
    </contour>
    <contour>
      <point x="490" y="-73" type="line"/>
      <point x="490" y="-82"/>
      <point x="497" y="-89"/>
      <point x="506" y="-89" type="curve" smooth="yes"/>
      <point x="515" y="-89"/>
      <point x="522" y="-82"/>
      <point x="522" y="-73" type="curve" smooth="yes"/>
      <point x="522" y="6" type="line" smooth="yes"/>
      <point x="522" y="15"/>
      <point x="515" y="22"/>
      <point x="506" y="22" type="curve" smooth="yes"/>
      <point x="497" y="22"/>
      <point x="490" y="15"/>
      <point x="490" y="6" type="curve" smooth="yes"/>
    </contour>
    <contour>
      <point x="830" y="939" type="curve" smooth="yes"/>
      <point x="830" y="930"/>
      <point x="837" y="923"/>
      <point x="846" y="923" type="curve" smooth="yes"/>
      <point x="855" y="923"/>
      <point x="862" y="930"/>
      <point x="862" y="939" type="curve" smooth="yes"/>
      <point x="862" y="1086"/>
      <point x="742" y="1205"/>
      <point x="595" y="1205" type="curve" smooth="yes"/>
      <point x="417" y="1205" type="line" smooth="yes"/>
      <point x="271" y="1205"/>
      <point x="151" y="1087"/>
      <point x="151" y="940" type="curve" smooth="yes"/>
      <point x="151" y="927" type="line" smooth="yes"/>
      <point x="151" y="780"/>
      <point x="271" y="661"/>
      <point x="417" y="661" type="curve" smooth="yes"/>
      <point x="615" y="661" type="line" smooth="yes"/>
      <point x="772" y="661"/>
      <point x="901" y="533"/>
      <point x="901" y="376" type="curve" smooth="yes"/>
      <point x="901" y="315" type="line" smooth="yes"/>
      <point x="901" y="157"/>
      <point x="772" y="30"/>
      <point x="615" y="30" type="curve" smooth="yes"/>
      <point x="398" y="30" type="line" smooth="yes"/>
      <point x="241" y="30"/>
      <point x="112" y="158"/>
      <point x="112" y="315" type="curve" smooth="yes"/>
      <point x="112" y="324"/>
      <point x="105" y="331"/>
      <point x="96" y="331" type="curve" smooth="yes"/>
      <point x="87" y="331"/>
      <point x="80" y="324"/>
      <point x="80" y="315" type="curve" smooth="yes"/>
      <point x="80" y="140"/>
      <point x="223" y="-2"/>
      <point x="398" y="-2" type="curve" smooth="yes"/>
      <point x="615" y="-2" type="line" smooth="yes"/>
      <point x="790" y="-2"/>
      <point x="933" y="139"/>
      <point x="933" y="315" type="curve" smooth="yes"/>
      <point x="933" y="376" type="line" smooth="yes"/>
      <point x="933" y="551"/>
      <point x="790" y="693"/>
      <point x="615" y="693" type="curve" smooth="yes"/>
      <point x="417" y="693" type="line" smooth="yes"/>
      <point x="289" y="693"/>
      <point x="183" y="798"/>
      <point x="183" y="927" type="curve" smooth="yes"/>
      <point x="183" y="940" type="line" smooth="yes"/>
      <point x="183" y="1069"/>
      <point x="289" y="1173"/>
      <point x="417" y="1173" type="curve" smooth="yes"/>
      <point x="595" y="1173" type="line" smooth="yes"/>
      <point x="724" y="1173"/>
      <point x="830" y="1068"/>
    </contour>
  </outline>
</glyph>
<glyph name="ampersand" format="1">
  <advance width="722.0"/>
  <unicode hex="0026"/>
  <outline>
    <contour>
      <point x="529" y="787" type="curve" smooth="yes"/>
      <point x="529" y="778"/>
      <point x="536" y="771"/>
      <point x="545" y="771" type="curve" smooth="yes"/>
      <point x="554" y="771"/>
      <point x="561" y="778"/>
      <point x="561" y="787" type="curve" smooth="yes"/>
      <point x="561" y="908"/>
      <point x="463" y="1006"/>
      <point x="343" y="1006" type="curve" smooth="yes"/>
      <point x="222" y="1006"/>
      <point x="124" y="908"/>
      <point x="124" y="787" type="curve" smooth="yes"/>
      <point x="124" y="751" type="line" smooth="yes"/>
      <point x="124" y="630"/>
      <point x="222" y="532"/>
      <point x="343" y="532" type="curve" smooth="yes"/>
      <point x="352" y="532"/>
      <point x="359" y="539"/>
      <point x="359" y="548" type="curve" smooth="yes"/>
      <point x="359" y="557"/>
      <point x="352" y="564"/>
      <point x="343" y="564" type="curve" smooth="yes"/>
      <point x="240" y="564"/>
      <point x="156" y="648"/>
      <point x="156" y="751" type="curve" smooth="yes"/>
      <point x="156" y="787" type="line" smooth="yes"/>
      <point x="156" y="890"/>
      <point x="240" y="974"/>
      <point x="343" y="974" type="curve" smooth="yes"/>
      <point x="445" y="974"/>
      <point x="529" y="890"/>
    </contour>
    <contour>
      <point x="706" y="-16" type="curve" smooth="yes"/>
      <point x="715" y="-16"/>
      <point x="722" y="-9"/>
      <point x="722" y="0" type="curve" smooth="yes"/>
      <point x="722" y="9"/>
      <point x="715" y="16"/>
      <point x="706" y="16" type="curve" smooth="yes"/>
      <point x="656" y="16"/>
      <point x="616" y="58"/>
      <point x="616" y="108" type="curve" smooth="yes"/>
      <point x="616" y="291" type="line" smooth="yes"/>
      <point x="616" y="441"/>
      <point x="493" y="564"/>
      <point x="343" y="564" type="curve" smooth="yes"/>
      <point x="192" y="564"/>
      <point x="69" y="441"/>
      <point x="69" y="291" type="curve" smooth="yes"/>
      <point x="69" y="241" type="line" smooth="yes"/>
      <point x="69" y="91"/>
      <point x="192" y="-32"/>
      <point x="343" y="-32" type="curve" smooth="yes"/>
      <point x="486" y="-32"/>
      <point x="617" y="26"/>
      <point x="711" y="121" type="curve" smooth="yes"/>
      <point x="717" y="127"/>
      <point x="717" y="137"/>
      <point x="711" y="143" type="curve" smooth="yes"/>
      <point x="705" y="149"/>
      <point x="695" y="149"/>
      <point x="689" y="143" type="curve" smooth="yes"/>
      <point x="601" y="54"/>
      <point x="478" y="0"/>
      <point x="343" y="0" type="curve" smooth="yes"/>
      <point x="210" y="0"/>
      <point x="101" y="109"/>
      <point x="101" y="241" type="curve" smooth="yes"/>
      <point x="101" y="291" type="line" smooth="yes"/>
      <point x="101" y="423"/>
      <point x="210" y="532"/>
      <point x="343" y="532" type="curve" smooth="yes"/>
      <point x="475" y="532"/>
      <point x="584" y="423"/>
      <point x="584" y="291" type="curve" smooth="yes"/>
      <point x="584" y="108" type="line" smooth="yes"/>
      <point x="584" y="40"/>
      <point x="638" y="-16"/>
    </contour>
  </outline>
</glyph>
<glyph name="asterisk" format="1">
  <advance width="366.0"/>
  <unicode hex="002A"/>
  <outline>
    <contour>
      <point x="198" y="1205" type="line"/>
      <point x="198" y="1214"/>
      <point x="191" y="1221"/>
      <point x="182" y="1221" type="curve" smooth="yes"/>
      <point x="173" y="1221"/>
      <point x="166" y="1214"/>
      <point x="166" y="1205" type="curve" smooth="yes"/>
      <point x="166" y="979" type="line" smooth="yes"/>
      <point x="166" y="970"/>
      <point x="173" y="963"/>
      <point x="182" y="963" type="curve" smooth="yes"/>
      <point x="191" y="963"/>
      <point x="198" y="970"/>
      <point x="198" y="979" type="curve" smooth="yes"/>
    </contour>
    <contour>
      <point x="92" y="1163" type="line"/>
      <point x="84" y="1167"/>
      <point x="74" y="1164"/>
      <point x="70" y="1157" type="curve" smooth="yes"/>
      <point x="66" y="1149"/>
      <point x="69" y="1139"/>
      <point x="76" y="1135" type="curve" smooth="yes"/>
      <point x="272" y="1021" type="line" smooth="yes"/>
      <point x="280" y="1017"/>
      <point x="290" y="1020"/>
      <point x="294" y="1027" type="curve" smooth="yes"/>
      <point x="298" y="1035"/>
      <point x="295" y="1045"/>
      <point x="288" y="1049" type="curve" smooth="yes"/>
    </contour>
    <contour>
      <point x="288" y="1135" type="line"/>
      <point x="295" y="1139"/>
      <point x="298" y="1149"/>
      <point x="294" y="1157" type="curve" smooth="yes"/>
      <point x="290" y="1164"/>
      <point x="280" y="1167"/>
      <point x="272" y="1163" type="curve" smooth="yes"/>
      <point x="76" y="1049" type="line" smooth="yes"/>
      <point x="69" y="1045"/>
      <point x="66" y="1035"/>
      <point x="70" y="1027" type="curve" smooth="yes"/>
      <point x="74" y="1020"/>
      <point x="84" y="1017"/>
      <point x="92" y="1021" type="curve" smooth="yes"/>
    </contour>
  </outline>
</glyph>
<glyph name="five" format="1">
  <advance width="840"/>
  <unicode hex="0035"/>
  <outline>
    <contour>
      <point x="112" y="329" type="curve" smooth="yes"/>
      <point x="112" y="338"/>
      <point x="105" y="345"/>
      <point x="96" y="345" type="curve" smooth="yes"/>
      <point x="87" y="345"/>
      <point x="80" y="338"/>
      <point x="80" y="329" type="curve" smooth="yes"/>
      <point x="80" y="142"/>
      <point x="233" y="-11"/>
      <point x="420" y="-11" type="curve" smooth="yes"/>
      <point x="607" y="-11"/>
      <point x="760" y="142"/>
      <point x="760" y="329" type="curve" smooth="yes"/>
      <point x="760" y="444" type="line" smooth="yes"/>
      <point x="760" y="631"/>
      <point x="607" y="784"/>
      <point x="420" y="784" type="curve" smooth="yes"/>
      <point x="96" y="784" type="line"/>
      <point x="112" y="768" type="line"/>
      <point x="112" y="1195" type="line"/>
      <point x="96" y="1179" type="line"/>
      <point x="744" y="1179" type="line" smooth="yes"/>
      <point x="753" y="1179"/>
      <point x="760" y="1186"/>
      <point x="760" y="1195" type="curve" smooth="yes"/>
      <point x="760" y="1204"/>
      <point x="753" y="1211"/>
      <point x="744" y="1211" type="curve" smooth="yes"/>
      <point x="96" y="1211" type="line" smooth="yes"/>
      <point x="87" y="1211"/>
      <point x="80" y="1204"/>
      <point x="80" y="1195" type="curve" smooth="yes"/>
      <point x="80" y="768" type="line" smooth="yes"/>
      <point x="80" y="759"/>
      <point x="87" y="752"/>
      <point x="96" y="752" type="curve" smooth="yes"/>
      <point x="420" y="752" type="line" smooth="yes"/>
      <point x="589" y="752"/>
      <point x="728" y="613"/>
      <point x="728" y="444" type="curve" smooth="yes"/>
      <point x="728" y="329" type="line" smooth="yes"/>
      <point x="728" y="160"/>
      <point x="589" y="21"/>
      <point x="420" y="21" type="curve" smooth="yes"/>
      <point x="251" y="21"/>
      <point x="112" y="160"/>
    </contour>
  </outline>
</glyph>
<glyph name="nine" format="1">
  <advance width="840"/>
  <unicode hex="0039"/>
  <outline>
    <contour>
      <point x="112" y="319" type="curve" smooth="yes"/>
      <point x="112" y="328"/>
      <point x="105" y="335"/>
      <point x="96" y="335" type="curve" smooth="yes"/>
      <point x="87" y="335"/>
      <point x="80" y="328"/>
      <point x="80" y="319" type="curve" smooth="yes"/>
      <point x="80" y="131"/>
      <point x="233" y="-21"/>
      <point x="420" y="-21" type="curve" smooth="yes"/>
      <point x="607" y="-21"/>
      <point x="760" y="131"/>
      <point x="760" y="319" type="curve" smooth="yes"/>
      <point x="760" y="883" type="line" smooth="yes"/>
      <point x="760" y="1070"/>
      <point x="607" y="1221"/>
      <point x="420" y="1221" type="curve" smooth="yes"/>
      <point x="233" y="1221"/>
      <point x="80" y="1070"/>
      <point x="80" y="883" type="curve" smooth="yes"/>
      <point x="80" y="728" type="line" smooth="yes"/>
      <point x="80" y="541"/>
      <point x="233" y="388"/>
      <point x="420" y="388" type="curve" smooth="yes"/>
      <point x="592" y="388"/>
      <point x="735" y="518"/>
      <point x="757" y="685" type="curve" smooth="yes"/>
      <point x="758" y="694"/>
      <point x="752" y="702"/>
      <point x="743" y="703" type="curve" smooth="yes"/>
      <point x="735" y="704"/>
      <point x="726" y="698"/>
      <point x="725" y="690" type="curve" smooth="yes"/>
      <point x="706" y="538"/>
      <point x="576" y="420"/>
      <point x="420" y="420" type="curve" smooth="yes"/>
      <point x="251" y="420"/>
      <point x="112" y="559"/>
      <point x="112" y="728" type="curve" smooth="yes"/>
      <point x="112" y="883" type="line" smooth="yes"/>
      <point x="112" y="1052"/>
      <point x="251" y="1189"/>
      <point x="420" y="1189" type="curve" smooth="yes"/>
      <point x="589" y="1189"/>
      <point x="728" y="1052"/>
      <point x="728" y="883" type="curve" smooth="yes"/>
      <point x="728" y="319" type="line" smooth="yes"/>
      <point x="728" y="149"/>
      <point x="589" y="11"/>
      <point x="420" y="11" type="curve" smooth="yes"/>
      <point x="251" y="11"/>
      <point x="112" y="149"/>
    </contour>
  </outline>
</glyph>
<glyph name="less" format="1">
  <advance width="733"/>
  <unicode hex="003C"/>
  <outline>
    <contour>
      <point x="629" y="-10" type="line"/>
      <point x="636" y="-16"/>
      <point x="646" y="-14"/>
      <point x="651" y="-8" type="curve" smooth="yes"/>
      <point x="656" y="-1"/>
      <point x="655" y="9"/>
      <point x="648" y="14" type="curve" smooth="yes"/>
      <point x="102" y="438" type="line"/>
      <point x="102" y="414" type="line"/>
      <point x="646" y="836" type="line" smooth="yes"/>
      <point x="653" y="841"/>
      <point x="654" y="851"/>
      <point x="649" y="858" type="curve" smooth="yes"/>
      <point x="644" y="864"/>
      <point x="634" y="866"/>
      <point x="627" y="860" type="curve" smooth="yes"/>
      <point x="83" y="438" type="line" smooth="yes"/>
      <point x="73" y="432"/>
      <point x="73" y="420"/>
      <point x="83" y="414" type="curve" smooth="yes"/>
    </contour>
  </outline>
</glyph>
<glyph name="at" format="1">
  <advance width="1079"/>
  <unicode hex="0040"/>
  <outline>
    <contour>
      <point x="851" y="539" type="curve" smooth="yes"/>
      <point x="851" y="548"/>
      <point x="844" y="555"/>
      <point x="835" y="555" type="curve" smooth="yes"/>
      <point x="826" y="555"/>
      <point x="819" y="548"/>
      <point x="819" y="539" type="curve" smooth="yes"/>
      <point x="819" y="392"/>
      <point x="698" y="272"/>
      <point x="552" y="272" type="curve" smooth="yes"/>
      <point x="406" y="272"/>
      <point x="285" y="392"/>
      <point x="285" y="539" type="curve" smooth="yes"/>
      <point x="285" y="602" type="line" smooth="yes"/>
      <point x="285" y="748"/>
      <point x="406" y="869"/>
      <point x="552" y="869" type="curve" smooth="yes"/>
      <point x="698" y="869"/>
      <point x="819" y="755"/>
      <point x="819" y="609" type="curve" smooth="yes"/>
      <point x="819" y="404" type="line"/>
      <point x="819" y="348"/>
      <point x="865" y="302"/>
      <point x="920" y="302" type="curve" smooth="yes"/>
      <point x="977" y="302"/>
      <point x="1022" y="348"/>
      <point x="1022" y="404" type="curve" smooth="yes"/>
      <point x="1022" y="697" type="line" smooth="yes"/>
      <point x="1022" y="957"/>
      <point x="810" y="1168"/>
      <point x="551" y="1168" type="curve" smooth="yes"/>
      <point x="291" y="1168"/>
      <point x="80" y="957"/>
      <point x="80" y="697" type="curve" smooth="yes"/>
      <point x="80" y="439" type="line" smooth="yes"/>
      <point x="80" y="179"/>
      <point x="291" y="-32"/>
      <point x="551" y="-32" type="curve" smooth="yes"/>
      <point x="679" y="-32"/>
      <point x="792" y="21"/>
      <point x="875" y="106" type="curve" smooth="yes"/>
      <point x="881" y="112"/>
      <point x="880" y="122"/>
      <point x="874" y="128" type="curve" smooth="yes"/>
      <point x="867" y="134"/>
      <point x="857" y="133"/>
      <point x="852" y="127" type="curve" smooth="yes"/>
      <point x="774" y="49"/>
      <point x="670" y="0"/>
      <point x="551" y="0" type="curve" smooth="yes"/>
      <point x="309" y="0"/>
      <point x="112" y="197"/>
      <point x="112" y="439" type="curve" smooth="yes"/>
      <point x="112" y="697" type="line" smooth="yes"/>
      <point x="112" y="939"/>
      <point x="309" y="1136"/>
      <point x="551" y="1136" type="curve" smooth="yes"/>
      <point x="792" y="1136"/>
      <point x="990" y="939"/>
      <point x="990" y="697" type="curve" smooth="yes"/>
      <point x="990" y="404" type="line" smooth="yes"/>
      <point x="990" y="366"/>
      <point x="959" y="334"/>
      <point x="920" y="334" type="curve" smooth="yes"/>
      <point x="883" y="334"/>
      <point x="851" y="366"/>
      <point x="851" y="404" type="curve" smooth="yes"/>
      <point x="851" y="609" type="line" smooth="yes"/>
      <point x="851" y="773"/>
      <point x="716" y="901"/>
      <point x="552" y="901" type="curve" smooth="yes"/>
      <point x="388" y="901"/>
      <point x="253" y="766"/>
      <point x="253" y="602" type="curve" smooth="yes"/>
      <point x="253" y="539" type="line" smooth="yes"/>
      <point x="253" y="374"/>
      <point x="388" y="240"/>
      <point x="552" y="240" type="curve" smooth="yes"/>
      <point x="716" y="240"/>
      <point x="851" y="374"/>
    </contour>
  </outline>
</glyph>
<glyph name="U" format="1">
  <advance width="1102"/>
  <unicode hex="0055"/>
  <outline>
    <contour>
      <point x="112" y="1184" type="line"/>
      <point x="112" y="1193"/>
      <point x="105" y="1200"/>
      <point x="96" y="1200" type="curve" smooth="yes"/>
      <point x="87" y="1200"/>
      <point x="80" y="1193"/>
      <point x="80" y="1184" type="curve" smooth="yes"/>
      <point x="80" y="439" type="line" smooth="yes"/>
      <point x="80" y="179"/>
      <point x="291" y="-32"/>
      <point x="551" y="-32" type="curve" smooth="yes"/>
      <point x="810" y="-32"/>
      <point x="1022" y="179"/>
      <point x="1022" y="439" type="curve" smooth="yes"/>
      <point x="1022" y="1184" type="line" smooth="yes"/>
      <point x="1022" y="1193"/>
      <point x="1015" y="1200"/>
      <point x="1006" y="1200" type="curve" smooth="yes"/>
      <point x="997" y="1200"/>
      <point x="990" y="1193"/>
      <point x="990" y="1184" type="curve" smooth="yes"/>
      <point x="990" y="439" type="line" smooth="yes"/>
      <point x="990" y="197"/>
      <point x="792" y="0"/>
      <point x="551" y="0" type="curve" smooth="yes"/>
      <point x="309" y="0"/>
      <point x="112" y="197"/>
      <point x="112" y="439" type="curve" smooth="yes"/>
    </contour>
  </outline>
</glyph>
<glyph name="W" format="1">
  <advance width="1128"/>
  <unicode hex="0057"/>
  <outline>
    <contour>
      <point x="1056" y="1180" type="line"/>
      <point x="1058" y="1189"/>
      <point x="1053" y="1198"/>
      <point x="1045" y="1199" type="curve" smooth="yes"/>
      <point x="1036" y="1201"/>
      <point x="1027" y="1196"/>
      <point x="1026" y="1188" type="curve" smooth="yes"/>
      <point x="770" y="4" type="line"/>
      <point x="801" y="6" type="line"/>
      <point x="579" y="645" type="line" smooth="yes"/>
      <point x="573" y="661"/>
      <point x="554" y="661"/>
      <point x="549" y="645" type="curve" smooth="yes"/>
      <point x="327" y="6" type="line"/>
      <point x="358" y="4" type="line"/>
      <point x="103" y="1188" type="line" smooth="yes"/>
      <point x="101" y="1196"/>
      <point x="93" y="1201"/>
      <point x="84" y="1199" type="curve" smooth="yes"/>
      <point x="76" y="1198"/>
      <point x="70" y="1189"/>
      <point x="72" y="1180" type="curve" smooth="yes"/>
      <point x="327" y="-4" type="line" smooth="yes"/>
      <point x="330" y="-21"/>
      <point x="352" y="-22"/>
      <point x="357" y="-6" type="curve" smooth="yes"/>
      <point x="579" y="634" type="line"/>
      <point x="549" y="634" type="line"/>
      <point x="771" y="-6" type="line" smooth="yes"/>
      <point x="776" y="-22"/>
      <point x="798" y="-21"/>
      <point x="801" y="-4" type="curve" smooth="yes"/>
    </contour>
  </outline>
</glyph>
<glyph name="Y" format="1">
  <advance width="1073"/>
  <unicode hex="0059"/>
  <outline>
    <contour>
      <point x="997" y="1175" type="curve" smooth="yes"/>
      <point x="548" y="486" type="line" smooth="yes"/>
      <point x="542" y="475"/>
      <point x="528" y="475"/>
      <point x="522" y="486" type="curve" smooth="yes"/>
      <point x="75" y="1175" type="line" smooth="yes"/>
      <point x="70" y="1182"/>
      <point x="72" y="1192"/>
      <point x="79" y="1197" type="curve" smooth="yes"/>
      <point x="86" y="1201"/>
      <point x="95" y="1199"/>
      <point x="100" y="1193" type="curve" smooth="yes"/>
      <point x="548" y="503" type="line"/>
      <point x="522" y="503" type="line"/>
      <point x="972" y="1193" type="line" smooth="yes"/>
      <point x="976" y="1199"/>
      <point x="986" y="1201"/>
      <point x="993" y="1197" type="curve" smooth="yes"/>
      <point x="1000" y="1192"/>
      <point x="1002" y="1182"/>
    </contour>
    <contour>
      <point x="519" y="11" type="curve" smooth="yes"/>
      <point x="519" y="494" type="line" smooth="yes"/>
      <point x="519" y="503"/>
      <point x="526" y="510"/>
      <point x="535" y="510" type="curve" smooth="yes"/>
      <point x="544" y="510"/>
      <point x="551" y="503"/>
      <point x="551" y="494" type="curve" smooth="yes"/>
      <point x="551" y="11" type="line" smooth="yes"/>
      <point x="551" y="2"/>
      <point x="544" y="-5"/>
      <point x="535" y="-5" type="curve" smooth="yes"/>
      <point x="526" y="-5"/>
      <point x="519" y="2"/>
    </contour>
  </outline>
</glyph>
<glyph name="Z" format="1">
  <advance width="1101"/>
  <unicode hex="005A"/>
  <outline>
    <contour>
      <point x="96" y="1200" type="line"/>
      <point x="87" y="1200"/>
      <point x="80" y="1193"/>
      <point x="80" y="1184" type="curve" smooth="yes"/>
      <point x="80" y="1175"/>
      <point x="87" y="1168"/>
      <point x="96" y="1168" type="curve" smooth="yes"/>
      <point x="1005" y="1168" type="line"/>
      <point x="993" y="1193" type="line"/>
      <point x="84" y="25" type="line" smooth="yes"/>
      <point x="75" y="14"/>
      <point x="82" y="0"/>
      <point x="96" y="0" type="curve" smooth="yes"/>
      <point x="1005" y="0" type="line" smooth="yes"/>
      <point x="1014" y="0"/>
      <point x="1021" y="7"/>
      <point x="1021" y="16" type="curve" smooth="yes"/>
      <point x="1021" y="25"/>
      <point x="1014" y="32"/>
      <point x="1005" y="32" type="curve" smooth="yes"/>
      <point x="96" y="32" type="line"/>
      <point x="108" y="7" type="line"/>
      <point x="1017" y="1175" type="line" smooth="yes"/>
      <point x="1026" y="1186"/>
      <point x="1019" y="1200"/>
      <point x="1005" y="1200" type="curve" smooth="yes"/>
    </contour>
  </outline>
</glyph>
<glyph name="asciicircum" format="1">
  <advance width="624.0"/>
  <unicode hex="005E"/>
  <outline>
    <contour>
      <point x="150" y="1228" type="line"/>
      <point x="144" y="1222"/>
      <point x="144" y="1212"/>
      <point x="150" y="1206" type="curve" smooth="yes"/>
      <point x="156" y="1200"/>
      <point x="166" y="1200"/>
      <point x="172" y="1206" type="curve" smooth="yes"/>
      <point x="323" y="1359" type="line"/>
      <point x="301" y="1359" type="line"/>
      <point x="452" y="1206" type="line" smooth="yes"/>
      <point x="458" y="1200"/>
      <point x="468" y="1200"/>
      <point x="474" y="1206" type="curve" smooth="yes"/>
      <point x="480" y="1212"/>
      <point x="480" y="1222"/>
      <point x="474" y="1228" type="curve" smooth="yes"/>
      <point x="323" y="1381" type="line" smooth="yes"/>
      <point x="317" y="1388"/>
      <point x="307" y="1388"/>
      <point x="301" y="1381" type="curve" smooth="yes"/>
    </contour>
  </outline>
</glyph>
<glyph name="underscore" format="1">
  <advance width="872"/>
  <unicode hex="005F"/>
  <outline>
    <contour>
      <point x="776" y="-16" type="line"/>
      <point x="784" y="-16"/>
      <point x="792" y="-9"/>
      <point x="792" y="0" type="curve" smooth="yes"/>
      <point x="792" y="9"/>
      <point x="784" y="16"/>
      <point x="776" y="16" type="curve" smooth="yes"/>
      <point x="96" y="16" type="line" smooth="yes"/>
      <point x="87" y="16"/>
      <point x="80" y="9"/>
      <point x="80" y="0" type="curve" smooth="yes"/>
      <point x="80" y="-9"/>
      <point x="87" y="-16"/>
      <point x="96" y="-16" type="curve" smooth="yes"/>
    </contour>
  </outline>
</glyph>
<glyph name="grave" format="1">
  <advance width="318.0"/>
  <unicode hex="0060"/>
  <outline>
    <contour>
      <point x="209" y="1267" type="line"/>
      <point x="215" y="1261"/>
      <point x="225" y="1261"/>
      <point x="231" y="1267" type="curve" smooth="yes"/>
      <point x="237" y="1273"/>
      <point x="237" y="1283"/>
      <point x="231" y="1289" type="curve" smooth="yes"/>
      <point x="87" y="1431" type="line" smooth="yes"/>
      <point x="81" y="1437"/>
      <point x="71" y="1437"/>
      <point x="65" y="1431" type="curve" smooth="yes"/>
      <point x="59" y="1425"/>
      <point x="59" y="1415"/>
      <point x="65" y="1409" type="curve" smooth="yes"/>
    </contour>
  </outline>
</glyph>
<glyph name="a" format="1">
  <advance width="936"/>
  <unicode hex="0061"/>
  <outline>
    <contour>
      <point x="826" y="23" type="line"/>
      <point x="826" y="15"/>
      <point x="832" y="9"/>
      <point x="840" y="9" type="curve" smooth="yes"/>
      <point x="847" y="9"/>
      <point x="854" y="15"/>
      <point x="854" y="23" type="curve" smooth="yes"/>
      <point x="854" y="535" type="line" smooth="yes"/>
      <point x="854" y="747"/>
      <point x="681" y="920"/>
      <point x="469" y="920" type="curve" smooth="yes"/>
      <point x="256" y="920"/>
      <point x="83" y="747"/>
      <point x="83" y="535" type="curve" smooth="yes"/>
      <point x="83" y="371" type="line" smooth="yes"/>
      <point x="83" y="159"/>
      <point x="256" y="-14"/>
      <point x="469" y="-14" type="curve" smooth="yes"/>
      <point x="681" y="-14"/>
      <point x="854" y="160"/>
      <point x="854" y="362" type="curve" smooth="yes"/>
      <point x="854" y="370"/>
      <point x="847" y="376"/>
      <point x="840" y="376" type="curve" smooth="yes"/>
      <point x="832" y="376"/>
      <point x="826" y="370"/>
      <point x="826" y="362" type="curve" smooth="yes"/>
      <point x="826" y="174"/>
      <point x="665" y="14"/>
      <point x="469" y="14" type="curve" smooth="yes"/>
      <point x="272" y="14"/>
      <point x="111" y="175"/>
      <point x="111" y="371" type="curve" smooth="yes"/>
      <point x="111" y="535" type="line" smooth="yes"/>
      <point x="111" y="731"/>
      <point x="272" y="892"/>
      <point x="469" y="892" type="curve" smooth="yes"/>
      <point x="665" y="892"/>
      <point x="826" y="731"/>
      <point x="826" y="535" type="curve" smooth="yes"/>
    </contour>
  </outline>
</glyph>
<glyph name="f" format="1">
  <advance width="497"/>
  <unicode hex="0066"/>
  <outline>
    <contour>
      <point x="467" y="1184" type="curve" smooth="yes"/>
      <point x="476" y="1184"/>
      <point x="483" y="1191"/>
      <point x="483" y="1200" type="curve" smooth="yes"/>
      <point x="483" y="1209"/>
      <point x="476" y="1216"/>
      <point x="467" y="1216" type="curve" smooth="yes"/>
      <point x="254" y="1216"/>
      <point x="80" y="1042"/>
      <point x="80" y="829" type="curve" smooth="yes"/>
      <point x="80" y="16" type="line" smooth="yes"/>
      <point x="80" y="7"/>
      <point x="87" y="0"/>
      <point x="96" y="0" type="curve" smooth="yes"/>
      <point x="105" y="0"/>
      <point x="112" y="7"/>
      <point x="112" y="16" type="curve" smooth="yes"/>
      <point x="112" y="829" type="line" smooth="yes"/>
      <point x="112" y="1024"/>
      <point x="272" y="1184"/>
    </contour>
    <contour>
      <point x="303" y="526" type="line"/>
      <point x="312" y="526"/>
      <point x="319" y="533"/>
      <point x="319" y="542" type="curve" smooth="yes"/>
      <point x="319" y="551"/>
      <point x="312" y="558"/>
      <point x="303" y="558" type="curve" smooth="yes"/>
      <point x="106" y="558" type="line" smooth="yes"/>
      <point x="97" y="558"/>
      <point x="90" y="551"/>
      <point x="90" y="542" type="curve" smooth="yes"/>
      <point x="90" y="533"/>
      <point x="97" y="526"/>
      <point x="106" y="526" type="curve" smooth="yes"/>
    </contour>
  </outline>
</glyph>
<glyph name="g" format="1">
  <advance width="934"/>
  <unicode hex="0067"/>
  <outline>
    <contour>
      <point x="112" y="-93" type="curve" smooth="yes"/>
      <point x="112" y="-84"/>
      <point x="105" y="-77"/>
      <point x="96" y="-77" type="curve" smooth="yes"/>
      <point x="87" y="-77"/>
      <point x="80" y="-84"/>
      <point x="80" y="-93" type="curve" smooth="yes"/>
      <point x="80" y="-306"/>
      <point x="254" y="-480"/>
      <point x="467" y="-480" type="curve" smooth="yes"/>
      <point x="680" y="-480"/>
      <point x="854" y="-306"/>
      <point x="854" y="-93" type="curve" smooth="yes"/>
      <point x="854" y="535" type="line" smooth="yes"/>
      <point x="854" y="748"/>
      <point x="680" y="922"/>
      <point x="467" y="922" type="curve" smooth="yes"/>
      <point x="254" y="922"/>
      <point x="80" y="748"/>
      <point x="80" y="535" type="curve" smooth="yes"/>
      <point x="80" y="371" type="line" smooth="yes"/>
      <point x="80" y="158"/>
      <point x="254" y="-16"/>
      <point x="467" y="-16" type="curve" smooth="yes"/>
      <point x="680" y="-16"/>
      <point x="854" y="158"/>
      <point x="854" y="371" type="curve" smooth="yes"/>
      <point x="854" y="380"/>
      <point x="847" y="387"/>
      <point x="838" y="387" type="curve" smooth="yes"/>
      <point x="829" y="387"/>
      <point x="822" y="380"/>
      <point x="822" y="371" type="curve" smooth="yes"/>
      <point x="822" y="176"/>
      <point x="662" y="16"/>
      <point x="467" y="16" type="curve" smooth="yes"/>
      <point x="272" y="16"/>
      <point x="112" y="176"/>
      <point x="112" y="371" type="curve" smooth="yes"/>
      <point x="112" y="535" type="line" smooth="yes"/>
      <point x="112" y="730"/>
      <point x="272" y="890"/>
      <point x="467" y="890" type="curve" smooth="yes"/>
      <point x="662" y="890"/>
      <point x="822" y="730"/>
      <point x="822" y="535" type="curve" smooth="yes"/>
      <point x="822" y="-93" type="line" smooth="yes"/>
      <point x="822" y="-288"/>
      <point x="662" y="-448"/>
      <point x="467" y="-448" type="curve" smooth="yes"/>
      <point x="272" y="-448"/>
      <point x="112" y="-288"/>
    </contour>
  </outline>
</glyph>
<glyph name="q" format="1">
  <advance width="934"/>
  <unicode hex="0071"/>
  <outline>
    <contour>
      <point x="854" y="371" type="curve" smooth="yes"/>
      <point x="854" y="380"/>
      <point x="847" y="387"/>
      <point x="838" y="387" type="curve" smooth="yes"/>
      <point x="829" y="387"/>
      <point x="822" y="380"/>
      <point x="822" y="371" type="curve" smooth="yes"/>
      <point x="822" y="176"/>
      <point x="662" y="16"/>
      <point x="467" y="16" type="curve" smooth="yes"/>
      <point x="272" y="16"/>
      <point x="112" y="176"/>
      <point x="112" y="371" type="curve" smooth="yes"/>
      <point x="112" y="535" type="line" smooth="yes"/>
      <point x="112" y="730"/>
      <point x="272" y="890"/>
      <point x="467" y="890" type="curve" smooth="yes"/>
      <point x="662" y="890"/>
      <point x="822" y="730"/>
      <point x="822" y="535" type="curve" smooth="yes"/>
      <point x="822" y="-294" type="line" smooth="yes"/>
      <point x="822" y="-303"/>
      <point x="829" y="-310"/>
      <point x="838" y="-310" type="curve" smooth="yes"/>
      <point x="847" y="-310"/>
      <point x="854" y="-303"/>
      <point x="854" y="-294" type="curve" smooth="yes"/>
      <point x="854" y="535" type="line" smooth="yes"/>
      <point x="854" y="748"/>
      <point x="680" y="922"/>
      <point x="467" y="922" type="curve" smooth="yes"/>
      <point x="254" y="922"/>
      <point x="80" y="748"/>
      <point x="80" y="535" type="curve" smooth="yes"/>
      <point x="80" y="371" type="line" smooth="yes"/>
      <point x="80" y="158"/>
      <point x="254" y="-16"/>
      <point x="467" y="-16" type="curve" smooth="yes"/>
      <point x="680" y="-16"/>
      <point x="854" y="158"/>
    </contour>
  </outline>
</glyph>
<glyph name="t" format="1">
  <advance width="522"/>
  <unicode hex="0074"/>
  <outline>
    <contour>
      <point x="112" y="1069" type="line"/>
      <point x="112" y="1078"/>
      <point x="105" y="1085"/>
      <point x="96" y="1085" type="curve" smooth="yes"/>
      <point x="87" y="1085"/>
      <point x="80" y="1078"/>
      <point x="80" y="1069" type="curve" smooth="yes"/>
      <point x="80" y="301" type="line" smooth="yes"/>
      <point x="80" y="126"/>
      <point x="222" y="-16"/>
      <point x="397" y="-16" type="curve" smooth="yes"/>
      <point x="427" y="-16" type="line" smooth="yes"/>
      <point x="436" y="-16"/>
      <point x="443" y="-9"/>
      <point x="443" y="0" type="curve" smooth="yes"/>
      <point x="443" y="9"/>
      <point x="436" y="16"/>
      <point x="427" y="16" type="curve" smooth="yes"/>
      <point x="397" y="16" type="line" smooth="yes"/>
      <point x="240" y="16"/>
      <point x="112" y="144"/>
      <point x="112" y="301" type="curve" smooth="yes"/>
    </contour>
    <contour>
      <point x="104" y="558" type="line"/>
      <point x="95" y="558"/>
      <point x="88" y="551"/>
      <point x="88" y="542" type="curve" smooth="yes"/>
      <point x="88" y="533"/>
      <point x="95" y="526"/>
      <point x="104" y="526" type="curve" smooth="yes"/>
      <point x="303" y="526" type="line" smooth="yes"/>
      <point x="312" y="526"/>
      <point x="319" y="533"/>
      <point x="319" y="542" type="curve" smooth="yes"/>
      <point x="319" y="551"/>
      <point x="312" y="558"/>
      <point x="303" y="558" type="curve" smooth="yes"/>
    </contour>
  </outline>
</glyph>
<glyph name="w" format="1">
  <advance width="1168"/>
  <unicode hex="0077"/>
  <outline>
    <contour>
      <point x="91" y="905" type="line"/>
      <point x="89" y="913"/>
      <point x="80" y="918"/>
      <point x="72" y="916" type="curve" smooth="yes"/>
      <point x="64" y="914"/>
      <point x="58" y="905"/>
      <point x="61" y="896" type="curve" smooth="yes"/>
      <point x="308" y="-4" type="line" smooth="yes"/>
      <point x="312" y="-20"/>
      <point x="333" y="-21"/>
      <point x="338" y="-6" type="curve" smooth="yes"/>
      <point x="581" y="684" type="line"/>
      <point x="552" y="684" type="line"/>
      <point x="798" y="-6" type="line" smooth="yes"/>
      <point x="803" y="-21"/>
      <point x="824" y="-20"/>
      <point x="828" y="-4" type="curve" smooth="yes"/>
      <point x="1073" y="896" type="line" smooth="yes"/>
      <point x="1075" y="905"/>
      <point x="1070" y="914"/>
      <point x="1062" y="916" type="curve" smooth="yes"/>
      <point x="1054" y="918"/>
      <point x="1044" y="913"/>
      <point x="1042" y="905" type="curve" smooth="yes"/>
      <point x="798" y="4" type="line"/>
      <point x="828" y="6" type="line"/>
      <point x="581" y="695" type="line" smooth="yes"/>
      <point x="576" y="710"/>
      <point x="557" y="710"/>
      <point x="552" y="695" type="curve" smooth="yes"/>
      <point x="308" y="6" type="line"/>
      <point x="338" y="4" type="line"/>
    </contour>
  </outline>
</glyph>
<glyph name="y" format="1">
  <advance width="921"/>
  <unicode hex="0079"/>
  <outline>
    <contour>
      <point x="104" y="896" type="line"/>
      <point x="100" y="904"/>
      <point x="91" y="908"/>
      <point x="83" y="905" type="curve" smooth="yes"/>
      <point x="75" y="901"/>
      <point x="71" y="891"/>
      <point x="75" y="884" type="curve" smooth="yes"/>
      <point x="445" y="29" type="line" smooth="yes"/>
      <point x="449" y="21"/>
      <point x="458" y="17"/>
      <point x="466" y="21" type="curve" smooth="yes"/>
      <point x="474" y="24"/>
      <point x="478" y="34"/>
      <point x="474" y="41" type="curve" smooth="yes"/>
    </contour>
    <contour>
      <point x="223" y="-473" type="line"/>
      <point x="220" y="-481"/>
      <point x="224" y="-490"/>
      <point x="232" y="-494" type="curve" smooth="yes"/>
      <point x="239" y="-497"/>
      <point x="249" y="-493"/>
      <point x="253" y="-485" type="curve" smooth="yes"/>
      <point x="846" y="884" type="line" smooth="yes"/>
      <point x="850" y="891"/>
      <point x="846" y="901"/>
      <point x="838" y="905" type="curve" smooth="yes"/>
      <point x="830" y="908"/>
      <point x="821" y="904"/>
      <point x="817" y="896" type="curve" smooth="yes"/>
    </contour>
  </outline>
</glyph>
<glyph name="currency" format="1">
  <advance width="955"/>
  <unicode hex="00A4"/>
  <outline>
    <contour>
      <point x="90" y="381" type="line"/>
      <point x="90" y="168"/>
      <point x="264" y="-6"/>
      <point x="477" y="-6" type="curve" smooth="yes"/>
      <point x="689" y="-6"/>
      <point x="864" y="167"/>
      <point x="864" y="381" type="curve" smooth="yes"/>
      <point x="864" y="525" type="line" smooth="yes"/>
      <point x="864" y="738"/>
      <point x="690" y="912"/>
      <point x="477" y="912" type="curve" smooth="yes"/>
      <point x="263" y="912"/>
      <point x="90" y="737"/>
      <point x="90" y="525" type="curve" smooth="yes"/>
    </contour>
    <contour>
      <point x="122" y="381" type="curve" smooth="yes"/>
      <point x="122" y="525" type="line" smooth="yes"/>
      <point x="122" y="719"/>
      <point x="281" y="880"/>
      <point x="477" y="880" type="curve" smooth="yes"/>
      <point x="672" y="880"/>
      <point x="832" y="720"/>
      <point x="832" y="525" type="curve" smooth="yes"/>
      <point x="832" y="381" type="line" smooth="yes"/>
      <point x="832" y="185"/>
      <point x="671" y="26"/>
      <point x="477" y="26" type="curve" smooth="yes"/>
      <point x="282" y="26"/>
      <point x="122" y="186"/>
    </contour>
    <contour>
      <point x="121" y="52" type="line"/>
      <point x="115" y="46"/>
      <point x="115" y="36"/>
      <point x="121" y="30" type="curve" smooth="yes"/>
      <point x="127" y="24"/>
      <point x="137" y="24"/>
      <point x="143" y="30" type="curve" smooth="yes"/>
      <point x="221" y="108" type="line" smooth="yes"/>
      <point x="227" y="114"/>
      <point x="227" y="124"/>
      <point x="221" y="130" type="curve" smooth="yes"/>
      <point x="215" y="136"/>
      <point x="205" y="136"/>
      <point x="199" y="130" type="curve" smooth="yes"/>
    </contour>
    <contour>
      <point x="199" y="777" type="line"/>
      <point x="205" y="771"/>
      <point x="215" y="771"/>
      <point x="221" y="777" type="curve" smooth="yes"/>
      <point x="227" y="783"/>
      <point x="227" y="793"/>
      <point x="221" y="799" type="curve" smooth="yes"/>
      <point x="144" y="876" type="line" smooth="yes"/>
      <point x="138" y="882"/>
      <point x="128" y="882"/>
      <point x="122" y="876" type="curve" smooth="yes"/>
      <point x="116" y="870"/>
      <point x="116" y="860"/>
      <point x="122" y="854" type="curve" smooth="yes"/>
    </contour>
    <contour>
      <point x="834" y="854" type="line"/>
      <point x="840" y="860"/>
      <point x="840" y="870"/>
      <point x="834" y="876" type="curve" smooth="yes"/>
      <point x="828" y="882"/>
      <point x="818" y="882"/>
      <point x="812" y="876" type="curve" smooth="yes"/>
      <point x="734" y="798" type="line" smooth="yes"/>
      <point x="728" y="792"/>
      <point x="728" y="782"/>
      <point x="734" y="776" type="curve" smooth="yes"/>
      <point x="740" y="770"/>
      <point x="750" y="770"/>
      <point x="756" y="776" type="curve" smooth="yes"/>
    </contour>
    <contour>
      <point x="756" y="130" type="line"/>
      <point x="750" y="136"/>
      <point x="740" y="136"/>
      <point x="734" y="130" type="curve" smooth="yes"/>
      <point x="728" y="124"/>
      <point x="728" y="114"/>
      <point x="734" y="108" type="curve" smooth="yes"/>
      <point x="812" y="29" type="line" smooth="yes"/>
      <point x="818" y="23"/>
      <point x="828" y="23"/>
      <point x="834" y="29" type="curve" smooth="yes"/>
      <point x="840" y="35"/>
      <point x="840" y="45"/>
      <point x="834" y="51" type="curve" smooth="yes"/>
    </contour>
  </outline>
</glyph>
<glyph name="brokenbar" format="1">
  <advance width="192.0"/>
  <unicode hex="00A6"/>
  <outline>
    <contour>
      <point x="112" y="1280" type="line"/>
      <point x="112" y="1289"/>
      <point x="105" y="1296"/>
      <point x="96" y="1296" type="curve" smooth="yes"/>
      <point x="87" y="1296"/>
      <point x="80" y="1289"/>
      <point x="80" y="1280" type="curve" smooth="yes"/>
      <point x="80" y="698" type="line" smooth="yes"/>
      <point x="80" y="689"/>
      <point x="87" y="682"/>
      <point x="96" y="682" type="curve" smooth="yes"/>
      <point x="105" y="682"/>
      <point x="112" y="689"/>
      <point x="112" y="698" type="curve" smooth="yes"/>
    </contour>
    <contour>
      <point x="80" y="-80" type="line"/>
      <point x="80" y="-89"/>
      <point x="87" y="-96"/>
      <point x="96" y="-96" type="curve" smooth="yes"/>
      <point x="105" y="-96"/>
      <point x="112" y="-89"/>
      <point x="112" y="-80" type="curve" smooth="yes"/>
      <point x="112" y="509" type="line" smooth="yes"/>
      <point x="112" y="518"/>
      <point x="105" y="525"/>
      <point x="96" y="525" type="curve" smooth="yes"/>
      <point x="87" y="525"/>
      <point x="80" y="518"/>
      <point x="80" y="509" type="curve" smooth="yes"/>
    </contour>
  </outline>
</glyph>
<glyph name="section" format="1">
  <advance width="1000.0"/>
  <unicode hex="00A7"/>
  <outline>
    <contour>
      <point x="620" y="914" type="curve" smooth="yes"/>
      <point x="620" y="905"/>
      <point x="627" y="898"/>
      <point x="636" y="898" type="curve" smooth="yes"/>
      <point x="645" y="898"/>
      <point x="652" y="905"/>
      <point x="652" y="914" type="curve" smooth="yes"/>
      <point x="652" y="1047"/>
      <point x="544" y="1155"/>
      <point x="411" y="1155" type="curve" smooth="yes"/>
      <point x="401" y="1155" type="line" smooth="yes"/>
      <point x="268" y="1155"/>
      <point x="160" y="1047"/>
      <point x="160" y="914" type="curve" smooth="yes"/>
      <point x="160" y="899" type="line" smooth="yes"/>
      <point x="160" y="765"/>
      <point x="268" y="657"/>
      <point x="401" y="657" type="curve" smooth="yes"/>
      <point x="494" y="657" type="line" smooth="yes"/>
      <point x="630" y="657"/>
      <point x="742" y="546"/>
      <point x="742" y="409" type="curve" smooth="yes"/>
      <point x="742" y="354" type="line" smooth="yes"/>
      <point x="742" y="218"/>
      <point x="630" y="106"/>
      <point x="494" y="106" type="curve" smooth="yes"/>
      <point x="456" y="106" type="line" smooth="yes"/>
      <point x="447" y="106"/>
      <point x="440" y="99"/>
      <point x="440" y="90" type="curve" smooth="yes"/>
      <point x="440" y="81"/>
      <point x="447" y="74"/>
      <point x="456" y="74" type="curve" smooth="yes"/>
      <point x="494" y="74" type="line" smooth="yes"/>
      <point x="648" y="74"/>
      <point x="774" y="200"/>
      <point x="774" y="354" type="curve" smooth="yes"/>
      <point x="774" y="409" type="line" smooth="yes"/>
      <point x="774" y="564"/>
      <point x="648" y="689"/>
      <point x="494" y="689" type="curve" smooth="yes"/>
      <point x="401" y="689" type="line" smooth="yes"/>
      <point x="286" y="689"/>
      <point x="192" y="783"/>
      <point x="192" y="899" type="curve" smooth="yes"/>
      <point x="192" y="914" type="line" smooth="yes"/>
      <point x="192" y="1029"/>
      <point x="286" y="1123"/>
      <point x="401" y="1123" type="curve" smooth="yes"/>
      <point x="411" y="1123" type="line" smooth="yes"/>
      <point x="526" y="1123"/>
      <point x="620" y="1029"/>
    </contour>
    <contour>
      <point x="238" y="-151" type="curve" smooth="yes"/>
      <point x="238" y="-142"/>
      <point x="231" y="-135"/>
      <point x="222" y="-135" type="curve" smooth="yes"/>
      <point x="213" y="-135"/>
      <point x="206" y="-142"/>
      <point x="206" y="-151" type="curve" smooth="yes"/>
      <point x="206" y="-284"/>
      <point x="314" y="-392"/>
      <point x="447" y="-392" type="curve" smooth="yes"/>
      <point x="457" y="-392" type="line" smooth="yes"/>
      <point x="590" y="-392"/>
      <point x="698" y="-284"/>
      <point x="698" y="-151" type="curve" smooth="yes"/>
      <point x="698" y="-135" type="line" smooth="yes"/>
      <point x="698" y="-2"/>
      <point x="590" y="106"/>
      <point x="457" y="106" type="curve" smooth="yes"/>
      <point x="364" y="106" type="line" smooth="yes"/>
      <point x="227" y="106"/>
      <point x="116" y="217"/>
      <point x="116" y="354" type="curve" smooth="yes"/>
      <point x="116" y="409" type="line" smooth="yes"/>
      <point x="116" y="545"/>
      <point x="227" y="657"/>
      <point x="364" y="657" type="curve" smooth="yes"/>
      <point x="402" y="657" type="line" smooth="yes"/>
      <point x="411" y="657"/>
      <point x="418" y="664"/>
      <point x="418" y="673" type="curve" smooth="yes"/>
      <point x="418" y="682"/>
      <point x="411" y="689"/>
      <point x="402" y="689" type="curve" smooth="yes"/>
      <point x="364" y="689" type="line" smooth="yes"/>
      <point x="209" y="689"/>
      <point x="84" y="563"/>
      <point x="84" y="409" type="curve" smooth="yes"/>
      <point x="84" y="354" type="line" smooth="yes"/>
      <point x="84" y="199"/>
      <point x="209" y="74"/>
      <point x="364" y="74" type="curve" smooth="yes"/>
      <point x="457" y="74" type="line" smooth="yes"/>
      <point x="572" y="74"/>
      <point x="666" y="-20"/>
      <point x="666" y="-135" type="curve" smooth="yes"/>
      <point x="666" y="-151" type="line" smooth="yes"/>
      <point x="666" y="-266"/>
      <point x="572" y="-360"/>
      <point x="457" y="-360" type="curve" smooth="yes"/>
      <point x="447" y="-360" type="line" smooth="yes"/>
      <point x="332" y="-360"/>
      <point x="238" y="-266"/>
    </contour>
  </outline>
</glyph>
<glyph name="dieresis" format="1">
  <advance width="280.0"/>
  <unicode hex="00A8"/>
  <outline>
    <contour>
      <point x="193" y="1298" type="curve" smooth="yes"/>
      <point x="203" y="1298"/>
      <point x="213" y="1306"/>
      <point x="213" y="1318" type="curve" smooth="yes"/>
      <point x="213" y="1328"/>
      <point x="203" y="1338"/>
      <point x="193" y="1338" type="curve" smooth="yes"/>
      <point x="181" y="1338"/>
      <point x="173" y="1328"/>
      <point x="173" y="1318" type="curve" smooth="yes"/>
      <point x="173" y="1306"/>
      <point x="181" y="1298"/>
    </contour>
    <contour>
      <point x="87" y="1298" type="curve" smooth="yes"/>
      <point x="97" y="1298"/>
      <point x="107" y="1306"/>
      <point x="107" y="1318" type="curve" smooth="yes"/>
      <point x="107" y="1328"/>
      <point x="97" y="1338"/>
      <point x="87" y="1338" type="curve" smooth="yes"/>
      <point x="75" y="1338"/>
      <point x="67" y="1328"/>
      <point x="67" y="1318" type="curve" smooth="yes"/>
      <point x="67" y="1306"/>
      <point x="75" y="1298"/>
    </contour>
  </outline>
</glyph>
<glyph name="macron" format="1">
  <advance width="366.0"/>
  <unicode hex="00AF"/>
  <outline>
    <contour>
      <point x="283" y="1302" type="line"/>
      <point x="292" y="1302"/>
      <point x="299" y="1309"/>
      <point x="299" y="1318" type="curve" smooth="yes"/>
      <point x="299" y="1327"/>
      <point x="292" y="1334"/>
      <point x="283" y="1334" type="curve" smooth="yes"/>
      <point x="83" y="1334" type="line" smooth="yes"/>
      <point x="74" y="1334"/>
      <point x="67" y="1327"/>
      <point x="67" y="1318" type="curve" smooth="yes"/>
      <point x="67" y="1309"/>
      <point x="74" y="1302"/>
      <point x="83" y="1302" type="curve" smooth="yes"/>
    </contour>
  </outline>
</glyph>
<glyph name="questiondown" format="1">
  <advance width="934"/>
  <unicode hex="00BF"/>
  <outline>
    <contour>
      <point x="467" y="1220" type="curve" smooth="yes"/>
      <point x="455" y="1220"/>
      <point x="443" y="1208"/>
      <point x="443" y="1196" type="curve" smooth="yes"/>
      <point x="443" y="1184"/>
      <point x="455" y="1172"/>
      <point x="467" y="1172" type="curve" smooth="yes"/>
      <point x="479" y="1172"/>
      <point x="491" y="1184"/>
      <point x="491" y="1196" type="curve" smooth="yes"/>
      <point x="491" y="1208"/>
      <point x="479" y="1220"/>
    </contour>
    <contour>
      <point x="483" y="1002" type="line"/>
      <point x="483" y="1011"/>
      <point x="476" y="1018"/>
      <point x="467" y="1018" type="curve" smooth="yes"/>
      <point x="458" y="1018"/>
      <point x="451" y="1011"/>
      <point x="451" y="1002" type="curve" smooth="yes"/>
      <point x="451" y="813" type="line"/>
      <point x="467" y="829" type="line"/>
      <point x="254" y="829"/>
      <point x="80" y="655"/>
      <point x="80" y="442" type="curve" smooth="yes"/>
      <point x="80" y="371" type="line" smooth="yes"/>
      <point x="80" y="158"/>
      <point x="254" y="-16"/>
      <point x="467" y="-16" type="curve" smooth="yes"/>
      <point x="680" y="-16"/>
      <point x="854" y="158"/>
      <point x="854" y="371" type="curve" smooth="yes"/>
      <point x="854" y="380"/>
      <point x="847" y="387"/>
      <point x="838" y="387" type="curve" smooth="yes"/>
      <point x="829" y="387"/>
      <point x="822" y="380"/>
      <point x="822" y="371" type="curve" smooth="yes"/>
      <point x="822" y="176"/>
      <point x="662" y="16"/>
      <point x="467" y="16" type="curve" smooth="yes"/>
      <point x="272" y="16"/>
      <point x="112" y="176"/>
      <point x="112" y="371" type="curve" smooth="yes"/>
      <point x="112" y="442" type="line" smooth="yes"/>
      <point x="112" y="637"/>
      <point x="272" y="797"/>
      <point x="467" y="797" type="curve" smooth="yes"/>
      <point x="476" y="797"/>
      <point x="483" y="804"/>
      <point x="483" y="813" type="curve" smooth="yes"/>
    </contour>
  </outline>
</glyph>
<glyph name="thorn" format="1">
  <advance width="616.0"/>
  <unicode hex="00FE"/>
  <outline>
    <contour>
      <point x="80" y="-160" type="line"/>
      <point x="80" y="-169"/>
      <point x="87" y="-176"/>
      <point x="96" y="-176" type="curve" smooth="yes"/>
      <point x="105" y="-176"/>
      <point x="112" y="-169"/>
      <point x="112" y="-160" type="curve" smooth="yes"/>
      <point x="112" y="1200" type="line" smooth="yes"/>
      <point x="112" y="1209"/>
      <point x="105" y="1216"/>
      <point x="96" y="1216" type="curve" smooth="yes"/>
      <point x="87" y="1216"/>
      <point x="80" y="1209"/>
      <point x="80" y="1200" type="curve" smooth="yes"/>
    </contour>
    <contour>
      <point x="80" y="535" type="curve" smooth="yes"/>
      <point x="80" y="526"/>
      <point x="87" y="519"/>
      <point x="96" y="519" type="curve" smooth="yes"/>
      <point x="105" y="519"/>
      <point x="112" y="526"/>
      <point x="112" y="535" type="curve" smooth="yes"/>
      <point x="112" y="730"/>
      <point x="272" y="890"/>
      <point x="467" y="890" type="curve" smooth="yes"/>
      <point x="662" y="890"/>
      <point x="822" y="730"/>
      <point x="822" y="535" type="curve" smooth="yes"/>
      <point x="822" y="371" type="line" smooth="yes"/>
      <point x="822" y="176"/>
      <point x="662" y="16"/>
      <point x="467" y="16" type="curve" smooth="yes"/>
      <point x="272" y="16"/>
      <point x="112" y="176"/>
      <point x="112" y="371" type="curve" smooth="yes"/>
      <point x="112" y="380"/>
      <point x="105" y="387"/>
      <point x="96" y="387" type="curve" smooth="yes"/>
      <point x="87" y="387"/>
      <point x="80" y="380"/>
      <point x="80" y="371" type="curve" smooth="yes"/>
      <point x="80" y="158"/>
      <point x="254" y="-16"/>
      <point x="467" y="-16" type="curve" smooth="yes"/>
      <point x="680" y="-16"/>
      <point x="854" y="158"/>
      <point x="854" y="371" type="curve" smooth="yes"/>
      <point x="854" y="535" type="line" smooth="yes"/>
      <point x="854" y="748"/>
      <point x="680" y="922"/>
      <point x="467" y="922" type="curve" smooth="yes"/>
      <point x="254" y="922"/>
      <point x="80" y="748"/>
    </contour>
  </outline>
</glyph>
<glyph name="Lslash" format="1">
  <advance width="616.0"/>
  <unicode hex="0141"/>
  <outline>
    <contour>
      <point x="179" y="884" type="line"/>
      <point x="186" y="888"/>
      <point x="189" y="899"/>
      <point x="185" y="906" type="curve" smooth="yes"/>
      <point x="181" y="912"/>
      <point x="170" y="915"/>
      <point x="163" y="911" type="curve" smooth="yes"/>
      <point x="13" y="824" type="line" smooth="yes"/>
      <point x="6" y="820"/>
      <point x="3" y="809"/>
      <point x="7" y="803" type="curve" smooth="yes"/>
      <point x="11" y="796"/>
      <point x="22" y="793"/>
      <point x="29" y="797" type="curve" smooth="yes"/>
    </contour>
    <component base="L"/>
  </outline>
</glyph>
<glyph name="circumflex" format="1">
  <advance width="612.0"/>
  <unicode hex="02C6"/>
  <outline>
    <contour>
      <point x="179" y="1262" type="line"/>
      <point x="173" y="1256"/>
      <point x="173" y="1246"/>
      <point x="179" y="1240" type="curve" smooth="yes"/>
      <point x="185" y="1234"/>
      <point x="195" y="1234"/>
      <point x="201" y="1240" type="curve" smooth="yes"/>
      <point x="323" y="1363" type="line"/>
      <point x="301" y="1363" type="line"/>
      <point x="423" y="1240" type="line" smooth="yes"/>
      <point x="429" y="1234"/>
      <point x="439" y="1234"/>
      <point x="445" y="1240" type="curve" smooth="yes"/>
      <point x="451" y="1246"/>
      <point x="451" y="1256"/>
      <point x="445" y="1262" type="curve" smooth="yes"/>
      <point x="323" y="1385" type="line" smooth="yes"/>
      <point x="317" y="1392"/>
      <point x="307" y="1392"/>
      <point x="301" y="1385" type="curve" smooth="yes"/>
    </contour>
  </outline>
</glyph>
<glyph name="dotaccent" format="1">
  <advance width="200.0"/>
  <unicode hex="02D9"/>
  <outline>
    <contour>
      <point x="100" y="1298" type="curve" smooth="yes"/>
      <point x="110" y="1298"/>
      <point x="120" y="1306"/>
      <point x="120" y="1318" type="curve" smooth="yes"/>
      <point x="120" y="1328"/>
      <point x="110" y="1338"/>
      <point x="100" y="1338" type="curve" smooth="yes"/>
      <point x="88" y="1338"/>
      <point x="80" y="1328"/>
      <point x="80" y="1318" type="curve" smooth="yes"/>
      <point x="80" y="1306"/>
      <point x="88" y="1298"/>
    </contour>
  </outline>
</glyph>
<glyph name="hungarumlaut" format="1">
  <advance width="318.0"/>
  <unicode hex="02DD"/>
  <outline>
    <contour>
      <point x="253" y="1409" type="line"/>
      <point x="259" y="1415"/>
      <point x="259" y="1425"/>
      <point x="253" y="1431" type="curve" smooth="yes"/>
      <point x="247" y="1437"/>
      <point x="237" y="1437"/>
      <point x="231" y="1431" type="curve" smooth="yes"/>
      <point x="87" y="1289" type="line" smooth="yes"/>
      <point x="81" y="1283"/>
      <point x="81" y="1273"/>
      <point x="87" y="1267" type="curve" smooth="yes"/>
      <point x="93" y="1261"/>
      <point x="103" y="1261"/>
      <point x="109" y="1267" type="curve" smooth="yes"/>
    </contour>
    <contour>
      <point x="393" y="1409" type="line"/>
      <point x="399" y="1415"/>
      <point x="399" y="1425"/>
      <point x="393" y="1431" type="curve" smooth="yes"/>
      <point x="387" y="1437"/>
      <point x="377" y="1437"/>
      <point x="371" y="1431" type="curve" smooth="yes"/>
      <point x="227" y="1289" type="line" smooth="yes"/>
      <point x="221" y="1283"/>
      <point x="221" y="1273"/>
      <point x="227" y="1267" type="curve" smooth="yes"/>
      <point x="233" y="1261"/>
      <point x="243" y="1261"/>
      <point x="249" y="1267" type="curve" smooth="yes"/>
    </contour>
  </outline>
</glyph>
<glyph name="endash" format="1">
  <advance width="1000.0"/>
  <unicode hex="2013"/>
  <outline>
    <contour>
      <point x="96" y="459" type="line"/>
      <point x="87" y="459"/>
      <point x="80" y="452"/>
      <point x="80" y="443" type="curve" smooth="yes"/>
      <point x="80" y="434"/>
      <point x="87" y="427"/>
      <point x="96" y="427" type="curve" smooth="yes"/>
      <point x="904" y="427" type="line" smooth="yes"/>
      <point x="913" y="427"/>
      <point x="920" y="434"/>
      <point x="920" y="443" type="curve" smooth="yes"/>
      <point x="920" y="452"/>
      <point x="913" y="459"/>
      <point x="904" y="459" type="curve" smooth="yes"/>
    </contour>
  </outline>
</glyph>
<glyph name="bullet" format="1">
  <advance width="374.0"/>
  <unicode hex="2022"/>
  <outline>
    <contour>
      <point x="187" y="336" type="curve" smooth="yes"/>
      <point x="245" y="336"/>
      <point x="294" y="383"/>
      <point x="294" y="443" type="curve" smooth="yes"/>
      <point x="294" y="501"/>
      <point x="245" y="550"/>
      <point x="187" y="550" type="curve" smooth="yes"/>
      <point x="127" y="550"/>
      <point x="80" y="501"/>
      <point x="80" y="443" type="curve" smooth="yes"/>
      <point x="80" y="383"/>
      <point x="127" y="336"/>
    </contour>
  </outline>
</glyph>
<glyph name="infinity" format="1">
  <advance width="1778"/>
  <unicode hex="221E"/>
  <outline>
    <contour>
      <point x="961" y="720" type="curve" smooth="yes"/>
      <point x="955" y="714"/>
      <point x="955" y="704"/>
      <point x="962" y="698" type="curve" smooth="yes"/>
      <point x="968" y="692"/>
      <point x="978" y="693"/>
      <point x="984" y="699" type="curve" smooth="yes"/>
      <point x="1048" y="766"/>
      <point x="1139" y="807"/>
      <point x="1238" y="807" type="curve" smooth="yes"/>
      <point x="1277" y="807" type="line" smooth="yes"/>
      <point x="1472" y="807"/>
      <point x="1632" y="647"/>
      <point x="1632" y="452" type="curve" smooth="yes"/>
      <point x="1632" y="256"/>
      <point x="1472" y="96"/>
      <point x="1277" y="96" type="curve" smooth="yes"/>
      <point x="1248" y="96" type="line" smooth="yes"/>
      <point x="1052" y="96"/>
      <point x="921" y="200"/>
      <point x="883" y="454" type="curve" smooth="yes"/>
      <point x="841" y="729"/>
      <point x="698" y="839"/>
      <point x="486" y="839" type="curve" smooth="yes"/>
      <point x="457" y="839" type="line" smooth="yes"/>
      <point x="244" y="839"/>
      <point x="70" y="665"/>
      <point x="70" y="452" type="curve" smooth="yes"/>
      <point x="70" y="238"/>
      <point x="244" y="64"/>
      <point x="457" y="64" type="curve" smooth="yes"/>
      <point x="496" y="64" type="line" smooth="yes"/>
      <point x="605" y="64"/>
      <point x="705" y="111"/>
      <point x="775" y="185" type="curve" smooth="yes"/>
      <point x="781" y="191"/>
      <point x="780" y="201"/>
      <point x="774" y="207" type="curve" smooth="yes"/>
      <point x="768" y="213"/>
      <point x="758" y="212"/>
      <point x="752" y="206" type="curve" smooth="yes"/>
      <point x="687" y="139"/>
      <point x="596" y="96"/>
      <point x="496" y="96" type="curve" smooth="yes"/>
      <point x="457" y="96" type="line" smooth="yes"/>
      <point x="262" y="96"/>
      <point x="102" y="256"/>
      <point x="102" y="452" type="curve" smooth="yes"/>
      <point x="102" y="647"/>
      <point x="262" y="807"/>
      <point x="457" y="807" type="curve" smooth="yes"/>
      <point x="486" y="807" type="line" smooth="yes"/>
      <point x="682" y="807"/>
      <point x="813" y="703"/>
      <point x="851" y="450" type="curve" smooth="yes"/>
      <point x="893" y="174"/>
      <point x="1036" y="64"/>
      <point x="1248" y="64" type="curve" smooth="yes"/>
      <point x="1277" y="64" type="line" smooth="yes"/>
      <point x="1490" y="64"/>
      <point x="1664" y="238"/>
      <point x="1664" y="452" type="curve" smooth="yes"/>
      <point x="1664" y="665"/>
      <point x="1490" y="839"/>
      <point x="1277" y="839" type="curve" smooth="yes"/>
      <point x="1238" y="839" type="line" smooth="yes"/>
      <point x="1130" y="839"/>
      <point x="1031" y="794"/>
    </contour>
  </outline>
</glyph>
<glyph name="uni24C5" format="1">
  <advance width="1063"/>
  <unicode hex="24C5"/>
  <outline>
    <contour>
      <point x="301" y="232" type="line"/>
      <point x="301" y="223"/>
      <point x="308" y="216"/>
      <point x="317" y="216" type="curve" smooth="yes"/>
      <point x="326" y="216"/>
      <point x="333" y="223"/>
      <point x="333" y="232" type="curve" smooth="yes"/>
      <point x="333" y="962" type="line"/>
      <point x="317" y="946" type="line"/>
      <point x="644" y="946" type="line" smooth="yes"/>
      <point x="761" y="946"/>
      <point x="857" y="851"/>
      <point x="857" y="734" type="curve" smooth="yes"/>
      <point x="857" y="690" type="line" smooth="yes"/>
      <point x="857" y="573"/>
      <point x="761" y="478"/>
      <point x="644" y="478" type="curve" smooth="yes"/>
      <point x="327" y="477" type="line" smooth="yes"/>
      <point x="318" y="477"/>
      <point x="311" y="470"/>
      <point x="311" y="461" type="curve" smooth="yes"/>
      <point x="311" y="452"/>
      <point x="319" y="445"/>
      <point x="327" y="445" type="curve" smooth="yes"/>
      <point x="644" y="446" type="line" smooth="yes"/>
      <point x="779" y="446"/>
      <point x="889" y="555"/>
      <point x="889" y="690" type="curve" smooth="yes"/>
      <point x="889" y="734" type="line" smooth="yes"/>
      <point x="889" y="869"/>
      <point x="779" y="978"/>
      <point x="644" y="978" type="curve" smooth="yes"/>
      <point x="317" y="978" type="line" smooth="yes"/>
      <point x="308" y="978"/>
      <point x="301" y="971"/>
      <point x="301" y="962" type="curve" smooth="yes"/>
    </contour>
    <component base="O"/>
  </outline>
</glyph>
<glyph name="dotlessj" format="1">
  <advance width="313"/>
  <outline>
    <contour>
      <point x="-4" y="-155" type="curve" smooth="yes"/>
      <point x="-12" y="-157"/>
      <point x="-16" y="-165"/>
      <point x="-14" y="-173" type="curve" smooth="yes"/>
      <point x="-12" y="-181"/>
      <point x="-4" y="-186"/>
      <point x="4" y="-184" type="curve" smooth="yes"/>
      <point x="98" y="-170"/>
      <point x="172" y="-86"/>
      <point x="172" y="16" type="curve" smooth="yes"/>
      <point x="172" y="890" type="line" smooth="yes"/>
      <point x="172" y="899"/>
      <point x="165" y="906"/>
      <point x="156" y="906" type="curve" smooth="yes"/>
      <point x="147" y="906"/>
      <point x="140" y="899"/>
      <point x="140" y="890" type="curve" smooth="yes"/>
      <point x="140" y="16" type="line" smooth="yes"/>
      <point x="140" y="-71"/>
      <point x="77" y="-143"/>
    </contour>
  </outline>
</glyph>
<glyph name="five.oldstyle" format="1">
  <advance width="840"/>
  <outline>
    <contour>
      <point x="112" y="79" type="curve" smooth="yes"/>
      <point x="112" y="88"/>
      <point x="105" y="95"/>
      <point x="96" y="95" type="curve" smooth="yes"/>
      <point x="87" y="95"/>
      <point x="80" y="88"/>
      <point x="80" y="79" type="curve" smooth="yes"/>
      <point x="80" y="-108"/>
      <point x="233" y="-261"/>
      <point x="420" y="-261" type="curve" smooth="yes"/>
      <point x="607" y="-261"/>
      <point x="760" y="-108"/>
      <point x="760" y="79" type="curve" smooth="yes"/>
      <point x="760" y="173" type="line" smooth="yes"/>
      <point x="760" y="361"/>
      <point x="607" y="513"/>
      <point x="420" y="513" type="curve" smooth="yes"/>
      <point x="96" y="513" type="line"/>
      <point x="112" y="497" type="line"/>
      <point x="112" y="901" type="line"/>
      <point x="96" y="885" type="line"/>
      <point x="733" y="885" type="line" smooth="yes"/>
      <point x="742" y="885"/>
      <point x="749" y="892"/>
      <point x="749" y="901" type="curve" smooth="yes"/>
      <point x="749" y="910"/>
      <point x="742" y="917"/>
      <point x="733" y="917" type="curve" smooth="yes"/>
      <point x="96" y="917" type="line" smooth="yes"/>
      <point x="87" y="917"/>
      <point x="80" y="910"/>
      <point x="80" y="901" type="curve" smooth="yes"/>
      <point x="80" y="497" type="line" smooth="yes"/>
      <point x="80" y="488"/>
      <point x="87" y="481"/>
      <point x="96" y="481" type="curve" smooth="yes"/>
      <point x="420" y="481" type="line" smooth="yes"/>
      <point x="589" y="481"/>
      <point x="728" y="343"/>
      <point x="728" y="173" type="curve" smooth="yes"/>
      <point x="728" y="79" type="line" smooth="yes"/>
      <point x="728" y="-90"/>
      <point x="589" y="-229"/>
      <point x="420" y="-229" type="curve" smooth="yes"/>
      <point x="251" y="-229"/>
      <point x="112" y="-90"/>
    </contour>
  </outline>
</glyph>
<glyph name="nine.oldstyle" format="1">
  <advance width="840"/>
  <outline>
    <contour>
      <point x="112" y="-56" type="curve" smooth="yes"/>
      <point x="112" y="-47"/>
      <point x="105" y="-40"/>
      <point x="96" y="-40" type="curve" smooth="yes"/>
      <point x="87" y="-40"/>
      <point x="80" y="-47"/>
      <point x="80" y="-56" type="curve" smooth="yes"/>
      <point x="80" y="-243"/>
      <point x="233" y="-396"/>
      <point x="420" y="-396" type="curve" smooth="yes"/>
      <point x="607" y="-396"/>
      <point x="760" y="-243"/>
      <point x="760" y="-56" type="curve" smooth="yes"/>
      <point x="760" y="583" type="line" smooth="yes"/>
      <point x="760" y="770"/>
      <point x="607" y="922"/>
      <point x="420" y="922" type="curve" smooth="yes"/>
      <point x="233" y="922"/>
      <point x="80" y="770"/>
      <point x="80" y="583" type="curve" smooth="yes"/>
      <point x="80" y="324" type="line" smooth="yes"/>
      <point x="80" y="137"/>
      <point x="233" y="-16"/>
      <point x="420" y="-16" type="curve" smooth="yes"/>
      <point x="592" y="-16"/>
      <point x="735" y="114"/>
      <point x="757" y="281" type="curve" smooth="yes"/>
      <point x="758" y="290"/>
      <point x="752" y="298"/>
      <point x="743" y="299" type="curve" smooth="yes"/>
      <point x="735" y="300"/>
      <point x="726" y="294"/>
      <point x="725" y="286" type="curve" smooth="yes"/>
      <point x="706" y="134"/>
      <point x="576" y="16"/>
      <point x="420" y="16" type="curve" smooth="yes"/>
      <point x="251" y="16"/>
      <point x="112" y="155"/>
      <point x="112" y="324" type="curve" smooth="yes"/>
      <point x="112" y="583" type="line" smooth="yes"/>
      <point x="112" y="752"/>
      <point x="251" y="890"/>
      <point x="420" y="890" type="curve" smooth="yes"/>
      <point x="589" y="890"/>
      <point x="728" y="752"/>
      <point x="728" y="583" type="curve" smooth="yes"/>
      <point x="728" y="-56" type="line" smooth="yes"/>
      <point x="728" y="-225"/>
      <point x="589" y="-364"/>
      <point x="420" y="-364" type="curve" smooth="yes"/>
      <point x="251" y="-364"/>
      <point x="112" y="-225"/>
    </contour>
  </outline>
</glyph>
<glyph name="seven.oldstyle" format="1">
  <advance width="616.0"/>
  <outline>
    <contour>
      <point x="96" y="906" type="line"/>
      <point x="87" y="906"/>
      <point x="80" y="899"/>
      <point x="80" y="890" type="curve" smooth="yes"/>
      <point x="80" y="881"/>
      <point x="87" y="874"/>
      <point x="96" y="874" type="curve" smooth="yes"/>
      <point x="744" y="874" type="line"/>
      <point x="728" y="894" type="line"/>
      <point x="391" y="-274" type="line" smooth="yes"/>
      <point x="389" y="-282"/>
      <point x="394" y="-291"/>
      <point x="402" y="-293" type="curve" smooth="yes"/>
      <point x="411" y="-296"/>
      <point x="419" y="-290"/>
      <point x="422" y="-282" type="curve" smooth="yes"/>
      <point x="759" y="886" type="line" smooth="yes"/>
      <point x="762" y="897"/>
      <point x="755" y="906"/>
      <point x="744" y="906" type="curve" smooth="yes"/>
    </contour>
  </outline>
</glyph>
<glyph name="seven.sup" format="1">
  <advance width="516"/>
  <outline>
    <contour>
      <point x="96" y="1200" type="line"/>
      <point x="87" y="1200"/>
      <point x="80" y="1193"/>
      <point x="80" y="1184" type="curve" smooth="yes"/>
      <point x="80" y="1175"/>
      <point x="87" y="1168"/>
      <point x="96" y="1168" type="curve" smooth="yes"/>
      <point x="420" y="1168" type="line"/>
      <point x="405" y="1188" type="line"/>
      <point x="236" y="604" type="line" smooth="yes"/>
      <point x="234" y="596"/>
      <point x="239" y="587"/>
      <point x="247" y="585" type="curve" smooth="yes"/>
      <point x="255" y="582"/>
      <point x="264" y="588"/>
      <point x="267" y="596" type="curve" smooth="yes"/>
      <point x="435" y="1180" type="line" smooth="yes"/>
      <point x="439" y="1191"/>
      <point x="432" y="1200"/>
      <point x="420" y="1200" type="curve" smooth="yes"/>
    </contour>
  </outline>
</glyph>
<glyph name="three.oldstyle" format="1">
  <advance width="840"/>
  <outline>
    <contour>
      <point x="505" y="366" type="curve" smooth="yes"/>
      <point x="496" y="364"/>
      <point x="490" y="356"/>
      <point x="491" y="347" type="curve" smooth="yes"/>
      <point x="493" y="339"/>
      <point x="501" y="333"/>
      <point x="510" y="334" type="curve" smooth="yes"/>
      <point x="643" y="354"/>
      <point x="747" y="471"/>
      <point x="747" y="610" type="curve" smooth="yes"/>
      <point x="747" y="643" type="line" smooth="yes"/>
      <point x="747" y="797"/>
      <point x="621" y="922"/>
      <point x="468" y="922" type="curve" smooth="yes"/>
      <point x="372" y="922" type="line" smooth="yes"/>
      <point x="218" y="922"/>
      <point x="93" y="797"/>
      <point x="93" y="643" type="curve" smooth="yes"/>
      <point x="93" y="634"/>
      <point x="100" y="627"/>
      <point x="109" y="627" type="curve" smooth="yes"/>
      <point x="118" y="627"/>
      <point x="125" y="634"/>
      <point x="125" y="643" type="curve" smooth="yes"/>
      <point x="125" y="779"/>
      <point x="236" y="890"/>
      <point x="372" y="890" type="curve" smooth="yes"/>
      <point x="468" y="890" type="line" smooth="yes"/>
      <point x="603" y="890"/>
      <point x="715" y="779"/>
      <point x="715" y="643" type="curve" smooth="yes"/>
      <point x="715" y="610" type="line" smooth="yes"/>
      <point x="715" y="487"/>
      <point x="623" y="384"/>
    </contour>
    <contour>
      <point x="112" y="-28" type="curve" smooth="yes"/>
      <point x="112" y="-19"/>
      <point x="105" y="-12"/>
      <point x="96" y="-12" type="curve" smooth="yes"/>
      <point x="87" y="-12"/>
      <point x="80" y="-19"/>
      <point x="80" y="-28" type="curve" smooth="yes"/>
      <point x="80" y="-189"/>
      <point x="211" y="-321"/>
      <point x="372" y="-321" type="curve" smooth="yes"/>
      <point x="468" y="-321" type="line" smooth="yes"/>
      <point x="628" y="-321"/>
      <point x="760" y="-189"/>
      <point x="760" y="-28" type="curve" smooth="yes"/>
      <point x="760" y="70" type="line" smooth="yes"/>
      <point x="760" y="223"/>
      <point x="642" y="349"/>
      <point x="493" y="361" type="curve" smooth="yes"/>
      <point x="484" y="362"/>
      <point x="476" y="355"/>
      <point x="475" y="347" type="curve" smooth="yes"/>
      <point x="475" y="338"/>
      <point x="482" y="330"/>
      <point x="490" y="329" type="curve" smooth="yes"/>
      <point x="622" y="318"/>
      <point x="728" y="206"/>
      <point x="728" y="70" type="curve" smooth="yes"/>
      <point x="728" y="-28" type="line" smooth="yes"/>
      <point x="728" y="-171"/>
      <point x="610" y="-289"/>
      <point x="468" y="-289" type="curve" smooth="yes"/>
      <point x="372" y="-289" type="line" smooth="yes"/>
      <point x="229" y="-289"/>
      <point x="112" y="-171"/>
    </contour>
  </outline>
</glyph>
<glyph name="three.sup" format="1">
  <advance width="523"/>
  <outline>
    <contour>
      <point x="300" y="948" type="curve" smooth="yes"/>
      <point x="291" y="947"/>
      <point x="285" y="939"/>
      <point x="286" y="930" type="curve" smooth="yes"/>
      <point x="287" y="922"/>
      <point x="295" y="916"/>
      <point x="304" y="916" type="curve" smooth="yes"/>
      <point x="377" y="926"/>
      <point x="436" y="989"/>
      <point x="436" y="1066" type="curve" smooth="yes"/>
      <point x="436" y="1082" type="line" smooth="yes"/>
      <point x="436" y="1165"/>
      <point x="369" y="1232"/>
      <point x="286" y="1232" type="curve" smooth="yes"/>
      <point x="237" y="1232" type="line" smooth="yes"/>
      <point x="154" y="1232"/>
      <point x="86" y="1165"/>
      <point x="86" y="1082" type="curve" smooth="yes"/>
      <point x="86" y="1073"/>
      <point x="93" y="1066"/>
      <point x="102" y="1066" type="curve" smooth="yes"/>
      <point x="111" y="1066"/>
      <point x="118" y="1073"/>
      <point x="118" y="1082" type="curve" smooth="yes"/>
      <point x="118" y="1147"/>
      <point x="172" y="1200"/>
      <point x="237" y="1200" type="curve" smooth="yes"/>
      <point x="286" y="1200" type="line" smooth="yes"/>
      <point x="351" y="1200"/>
      <point x="404" y="1147"/>
      <point x="404" y="1082" type="curve" smooth="yes"/>
      <point x="404" y="1066" type="line" smooth="yes"/>
      <point x="404" y="1005"/>
      <point x="358" y="955"/>
    </contour>
    <contour>
      <point x="112" y="741" type="curve" smooth="yes"/>
      <point x="112" y="750"/>
      <point x="105" y="757"/>
      <point x="96" y="757" type="curve" smooth="yes"/>
      <point x="87" y="757"/>
      <point x="80" y="750"/>
      <point x="80" y="741" type="curve" smooth="yes"/>
      <point x="80" y="654"/>
      <point x="150" y="584"/>
      <point x="237" y="584" type="curve" smooth="yes"/>
      <point x="286" y="584" type="line" smooth="yes"/>
      <point x="373" y="584"/>
      <point x="443" y="654"/>
      <point x="443" y="741" type="curve" smooth="yes"/>
      <point x="443" y="790" type="line" smooth="yes"/>
      <point x="443" y="872"/>
      <point x="380" y="940"/>
      <point x="300" y="946" type="curve" smooth="yes"/>
      <point x="291" y="947"/>
      <point x="283" y="940"/>
      <point x="282" y="932" type="curve" smooth="yes"/>
      <point x="282" y="923"/>
      <point x="289" y="915"/>
      <point x="297" y="914" type="curve" smooth="yes"/>
      <point x="361" y="909"/>
      <point x="411" y="856"/>
      <point x="411" y="790" type="curve" smooth="yes"/>
      <point x="411" y="741" type="line" smooth="yes"/>
      <point x="411" y="672"/>
      <point x="355" y="616"/>
      <point x="286" y="616" type="curve" smooth="yes"/>
      <point x="237" y="616" type="line" smooth="yes"/>
      <point x="168" y="616"/>
      <point x="112" y="672"/>
    </contour>
  </outline>
</glyph>
